g SM_Bonus_Energy
v 0.06914408 0 -0.2128034
v -0.06914388 0.9301145 -0.2128034
v -0.06914388 0 -0.2128034
v 0.06914408 0.9301145 -0.2128034
v 0.1810215 0 -0.1315199
v 0.1810215 0.9301145 -0.1315199
v 0.2237548 0 5.379618E-08
v 0.2237548 0.9301145 5.379618E-08
v 0.1810215 0 0.1315198
v 0.1810215 0.9301145 0.1315198
v 0.06914408 0 0.2128035
v 0.06914408 0.9301145 0.2128035
v -0.06914388 0 0.2128035
v -0.06914388 0.9301145 0.2128035
v -0.1810215 0 0.1315198
v -0.1810215 0.9301145 0.1315198
v -0.2237549 0 5.379618E-08
v -0.2237549 0.9301145 5.379618E-08
v -0.1810215 0 -0.1315199
v -0.1810215 0.9301145 -0.1315199
v -0.06914388 0 -0.2128034
v -0.06914388 0.9301145 -0.2128034
v 0.06914408 0 -0.2128034
v 1.013344E-07 0 5.379618E-08
v 0.1810215 0 -0.1315199
v -0.06914388 0 -0.2128034
v 0.2237548 0 5.379618E-08
v -0.1810215 0 -0.1315199
v 0.1810215 0 0.1315198
v -0.2237549 0 5.379618E-08
v 0.06914408 0 0.2128035
v -0.1810215 0 0.1315198
v -0.06914388 0 0.2128035
v 0.1810215 0.9301145 -0.1315199
v 1.013344E-07 0.9301145 5.379618E-08
v 0.06914408 0.9301145 -0.2128034
v 0.2237548 0.9301145 5.379618E-08
v -0.06914388 0.9301145 -0.2128034
v 0.1810215 0.9301145 0.1315198
v -0.1810215 0.9301145 -0.1315199
v 0.06914408 0.9301145 0.2128035
v -0.2237549 0.9301145 5.379618E-08
v -0.06914388 0.9301145 0.2128035
v -0.1810215 0.9301145 0.1315198
vt 0.1213346 0.02265895
vt 0.1341785 0.1184426
vt 0.1341785 0.02265895
vt 0.1213346 0.1184426
vt 0.1084911 0.02265895
vt 0.1084911 0.1184426
vt 0.09564763 0.02265895
vt 0.09564763 0.1184426
vt 0.0828044 0.02265895
vt 0.0828044 0.1184426
vt 0.06996124 0.02265895
vt 0.06996124 0.1184426
vt 0.05711813 0.02265895
vt 0.05711813 0.1184426
vt 0.04427485 0.02265895
vt 0.04427485 0.1184426
vt 0.03143145 0.02265895
vt 0.03143145 0.1184426
vt 0.01858781 0.02265895
vt 0.01858781 0.1184426
vt 0.005743984 0.02265895
vt 0.005743984 0.1184426
vt 0.1863292 0.04641947
vt 0.1665655 0.03999791
vt 0.1787801 0.05680981
vt 0.1863292 0.03357628
vt 0.1665655 0.06077865
vt 0.1787801 0.02318591
vt 0.1543509 0.05680987
vt 0.1665655 0.01921713
vt 0.1468019 0.04641947
vt 0.1543509 0.02318594
vt 0.1468019 0.03357634
vt 0.1845987 0.101781
vt 0.1648244 0.09539232
vt 0.1770671 0.1121839
vt 0.1845772 0.08893773
vt 0.1648591 0.116173
vt 0.1770109 0.07855996
vt 0.1526378 0.1122246
vt 0.1647897 0.07461163
vt 0.1450715 0.1018469
vt 0.1525817 0.07860073
vt 0.14505 0.08900377
vn 0.3090166 0 -0.9510565
vn -0.3090165 0 -0.9510567
vn -0.3090165 0 -0.9510567
vn 0.3090166 0 -0.9510565
vn 0.8090171 0 -0.5877852
vn 0.8090171 0 -0.5877852
vn 1 0 0
vn 1 0 0
vn 0.809017 0 0.5877854
vn 0.809017 0 0.5877854
vn 0.309017 0 0.9510565
vn 0.309017 0 0.9510565
vn -0.3090168 0 0.9510565
vn -0.3090168 0 0.9510565
vn -0.8090163 0 0.5877861
vn -0.8090163 0 0.5877861
vn -1 0 0
vn -1 0 0
vn -0.8090165 0 -0.5877859
vn -0.8090165 0 -0.5877859
vn -0.3090165 0 -0.9510567
vn -0.3090165 0 -0.9510567
vn 0 -1 0
vn 0 -1 0
vn 0 -1 0
vn 0 -1 0
vn 0 -1 0
vn 0 -1 0
vn 0 -1 0
vn 0 -1 0
vn 0 -1 0
vn 0 -1 0
vn 0 -1 0
vn 0 1 0
vn 0 1 0
vn 0 1 0
vn 0 1 0
vn 0 1 -2.074041E-07
vn 0 1 2.074037E-07
vn 0 1 -2.074036E-07
vn 0 1 2.074036E-07
vn 0 1 0
vn 0 1 4.148069E-07
vn 0 1 4.148065E-07
g SM_Bonus_Energy_0
f 3/3/3 2/2/2 1/1/1
f 2/2/2 4/4/4 1/1/1
f 1/1/1 4/4/4 5/5/5
f 4/4/4 6/6/6 5/5/5
f 5/5/5 6/6/6 7/7/7
f 6/6/6 8/8/8 7/7/7
f 7/7/7 8/8/8 9/9/9
f 8/8/8 10/10/10 9/9/9
f 9/9/9 10/10/10 11/11/11
f 10/10/10 12/12/12 11/11/11
f 11/11/11 12/12/12 13/13/13
f 12/12/12 14/14/14 13/13/13
f 13/13/13 14/14/14 15/15/15
f 14/14/14 16/16/16 15/15/15
f 15/15/15 16/16/16 17/17/17
f 16/16/16 18/18/18 17/17/17
f 17/17/17 18/18/18 19/19/19
f 18/18/18 20/20/20 19/19/19
f 19/19/19 20/20/20 21/21/21
f 20/20/20 22/22/22 21/21/21
f 25/25/25 24/24/24 23/23/23
f 23/23/23 24/24/24 26/26/26
f 27/27/27 24/24/24 25/25/25
f 26/26/26 24/24/24 28/28/28
f 29/29/29 24/24/24 27/27/27
f 28/28/28 24/24/24 30/30/30
f 31/31/31 24/24/24 29/29/29
f 30/30/30 24/24/24 32/32/32
f 33/33/33 24/24/24 31/31/31
f 32/32/32 24/24/24 33/33/33
f 36/36/36 35/35/35 34/34/34
f 34/34/34 35/35/35 37/37/37
f 38/38/38 35/35/35 36/36/36
f 37/37/37 35/35/35 39/39/39
f 40/40/40 35/35/35 38/38/38
f 39/39/39 35/35/35 41/41/41
f 42/42/42 35/35/35 40/40/40
f 41/41/41 35/35/35 43/43/43
f 44/44/44 35/35/35 42/42/42
f 43/43/43 35/35/35 44/44/44
