g SM_Hat_Christmas
v -0.1284982 -0.4268922 0.175592
v 0.002123589 -0.4383682 0.2545552
v 0.002121391 -0.4409564 0.2076414
v -0.1494516 -0.4220355 0.2173695
v -0.2241184 -0.3884682 0.08803174
v 0.001858714 -0.3916689 0.2886107
v -0.2604123 -0.3774261 0.1157709
v -0.2591178 -0.3359801 -0.03157791
v -0.1559651 -0.3746629 0.2498921
v 0.002172897 -0.3334407 0.3006005
v -0.3010267 -0.3164932 -0.02301732
v -0.2241184 -0.2834918 -0.1511876
v -0.2715001 -0.3282146 0.1441051
v -0.1494023 -0.3171082 0.2634148
v 0.002175183 -0.3025514 0.2822362
v -0.1347813 -0.287805 0.248632
v -0.260363 -0.2724988 0.1618162
v -0.2350404 -0.2475169 0.1568238
v -0.2604122 -0.2555633 -0.161807
v -0.1284982 -0.2450679 -0.2387479
v -0.3137888 -0.2647696 -0.0004045439
v -0.3009774 -0.2115657 0.02302801
v -0.2717378 -0.1924823 0.0314114
v -0.1494515 -0.2109628 -0.2634095
v 0.002121391 -0.2310037 -0.2707972
v -0.2715 -0.201328 -0.1449157
v -0.2603629 -0.1506358 -0.1157616
v -0.2350404 -0.1374478 -0.09400097
v 0.002123678 -0.1946423 -0.3006005
v 0.132741 -0.2450679 -0.2387479
v -0.155965 -0.1548889 -0.2507067
v -0.1494022 -0.1060355 -0.2173641
v -0.1347813 -0.09715957 -0.1858092
v 0.1536988 -0.2109749 -0.2634148
v 0.2283611 -0.2834918 -0.1511876
v 0.001858804 -0.1378955 -0.289431
v 0.002172985 -0.08971497 -0.2545552
v 0.002175183 -0.08241317 -0.2194134
v 0.2646596 -0.2555842 -0.1618162
v 0.2633606 -0.3359801 -0.03157791
v 0.1596826 -0.1549014 -0.2507123
v 0.1537481 -0.1060475 -0.2173695
v 0.1391316 -0.09715957 -0.1858092
v 0.305274 -0.3165173 -0.02302799
v 0.2283611 -0.3884682 0.08803174
v 0.2752176 -0.2013496 -0.1449253
v 0.2647088 -0.1506567 -0.1157709
v 0.2393907 -0.1374478 -0.09400097
v 0.2646595 -0.377447 0.1157617
v 0.132741 -0.4268922 0.175592
v 0.3175063 -0.2647946 -0.0004156542
v 0.3053233 -0.2115898 0.02301734
v 0.2760881 -0.1924823 0.0314114
v 0.1536988 -0.4220476 0.2173641
v 0.002121391 -0.4409564 0.2076414
v 0.002123589 -0.4383682 0.2545552
v 0.2752175 -0.3282362 0.1440955
v 0.2647088 -0.2725197 0.161807
v 0.2393907 -0.2475169 0.1568238
v 0.1596825 -0.3746756 0.2498865
v 0.001858714 -0.3916689 0.2886107
v 0.1537481 -0.3171202 0.2634095
v 0.1391316 -0.287805 0.248632
v 0.002172897 -0.3334407 0.3006005
v 0.002175183 -0.3025514 0.2822362
v 0.132741 -0.2450679 -0.2387479
v 0.002121391 -0.2310037 -0.2707972
v -0.1284982 -0.2450679 -0.2387479
v 0.2283611 -0.2834918 -0.1511876
v -0.2241184 -0.2834918 -0.1511876
v 0.2633606 -0.3359801 -0.03157791
v -0.2591178 -0.3359801 -0.03157791
v 0.2283611 -0.3884682 0.08803174
v -0.2241184 -0.3884682 0.08803174
v -0.1284982 -0.4268922 0.175592
v 0.132741 -0.4268922 0.175592
v 0.002121391 -0.4409564 0.2076414
v -0.1347813 -0.287805 0.248632
v 0.00157012 -0.255845 0.280237
v 0.002175183 -0.3025514 0.2822362
v -0.1242448 -0.2431781 0.2493192
v -0.2350404 -0.2475169 0.1568238
v 0.0001976633 -0.1289139 0.2764043
v -0.2175833 -0.204969 0.1637681
v -0.2717378 -0.1924823 0.0314114
v -0.09517024 -0.1164108 0.2527674
v -0.038465 -0.01344116 0.275911
v -0.2505092 -0.1527736 0.04944907
v -0.2350404 -0.1374478 -0.09400097
v -0.1686979 -0.08341491 0.1839245
v -0.09999896 -0.02584045 0.2507085
v -0.08895878 0.1736148 0.2575986
v -0.2154537 -0.09937668 -0.06564999
v -0.1347813 -0.09715957 -0.1858092
v -0.1917541 -0.04359634 0.0984458
v -0.1558828 -0.02196991 0.1882837
v -0.1181832 0.1537433 0.2519682
v -0.1792311 0.3068039 0.2125231
v -0.1554296 0.12548 0.2162772
v -0.1989583 0.2968814 0.1941019
v -0.1236895 -0.06065781 -0.1473231
v 0.002175183 -0.08241317 -0.2194134
v -0.1647387 -0.001117859 0.006969042
v -0.1736969 -0.003069763 0.1222247
v -0.1669587 0.114166 0.1803233
v 0.002758639 -0.04552109 -0.1768115
v 0.1391316 -0.09715957 -0.1858092
v -0.09688921 0.02696411 -0.05552059
v -0.1530853 0.03355957 0.04580967
v -0.158824 0.1131577 0.1183982
v -0.1961759 0.301969 0.1659356
v 0.1262551 -0.0582077 -0.1459137
v 0.2393907 -0.1374478 -0.09400097
v 0.004288974 0.03711243 -0.08142026
v -0.1029691 0.06805145 0.002598925
v -0.1356689 0.124895 0.08394819
v 0.2186625 -0.09574417 -0.06184901
v 0.2760881 -0.1924823 0.0314114
v 0.09821778 0.02508301 -0.05984609
v -0.02110114 0.1010815 -0.007069697
v -0.08502985 0.1559946 0.06134067
v -0.173666 0.3169793 0.1561906
v 0.2525195 -0.1470898 0.05064869
v 0.2393907 -0.2475169 0.1568238
v 0.173064 -0.007659607 0.006811481
v 0.04676978 0.1139536 0.02282912
v -0.04981235 0.180173 0.07037139
v 0.2195795 -0.2004716 0.1657718
v 0.1391316 -0.287805 0.248632
v 0.1985579 -0.04801056 0.09209294
v 0.1012727 0.1071024 0.09175003
v -0.01397205 0.2083356 0.1140944
v -0.1539388 0.3269019 0.1746118
v 0.1288527 -0.2399345 0.2490888
v 0.002175183 -0.3025514 0.2822362
v 0.00157012 -0.255845 0.280237
v 0.1730437 -0.09042877 0.1858803
v 0.1135949 0.08540954 0.1599648
v 0.103564 -0.1188953 0.2506958
v 0.0001976633 -0.1289139 0.2764043
v -0.006628761 0.2172302 0.1533876
v 0.0867622 0.04830872 0.2317886
v 0.03802709 0.01685028 0.2683648
v -0.038465 -0.01344116 0.275911
v -0.02120212 0.2136072 0.2116167
v -0.1567212 0.3218143 0.2027781
v -0.04301038 0.2019992 0.2386881
v -0.08895878 0.1736148 0.2575986
v -0.1792311 0.3068039 0.2125231
v -0.1804332 0.3464465 0.1220213
v -0.2224928 0.4036575 0.1192316
v -0.297381 0.3008468 0.1774569
v -0.2333872 0.2737485 0.1631929
v -0.2224928 0.3110477 0.2951691
v -0.1274793 0.3536597 0.2052564
v -0.1476047 0.4138583 0.2369438
v -0.1804332 0.2809613 0.246428
v -0.1630116 0.2956241 0.1747078
v -0.2224928 0.4036575 0.1192316
v -0.2645524 0.4337439 0.1679728
v -0.3175063 0.3610455 0.2091443
v -0.297381 0.3008468 0.1774569
v -0.1476047 0.4138583 0.2369438
v -0.2645524 0.3682587 0.2923794
v -0.2224928 0.3110477 0.2951691
v -0.2115985 0.4409567 0.2512079
v -0.281974 0.4190811 0.239693
vt 0.4545881 0.7008996
vt 0.470035 0.7056972
vt 0.4688601 0.7008996
vt 0.4545881 0.7056972
vt 0.4396781 0.7008996
vt 0.4703321 0.7112259
vt 0.4396781 0.7056972
vt 0.4247878 0.7008996
vt 0.4545881 0.7112259
vt 0.4700188 0.7169119
vt 0.4247878 0.7056972
vt 0.4099234 0.7008996
vt 0.4396781 0.7112259
vt 0.4545881 0.7169119
vt 0.4692168 0.720517
vt 0.4545881 0.720517
vt 0.4396781 0.7169119
vt 0.4396781 0.720517
vt 0.4099234 0.7056972
vt 0.3950658 0.7008996
vt 0.4247878 0.7112259
vt 0.4247878 0.7169119
vt 0.4247878 0.720517
vt 0.3950658 0.7056972
vt 0.3801148 0.7008996
vt 0.4099234 0.7112259
vt 0.4099234 0.7169119
vt 0.4099234 0.720517
vt 0.3801148 0.7056972
vt 0.3651611 0.7008996
vt 0.3950658 0.7112259
vt 0.3950658 0.7169119
vt 0.3950658 0.720517
vt 0.3651611 0.7056972
vt 0.3502786 0.7008996
vt 0.3801148 0.7112259
vt 0.3801148 0.7169119
vt 0.3801148 0.720517
vt 0.3502786 0.7056972
vt 0.3353866 0.7008996
vt 0.3651611 0.7112259
vt 0.3651611 0.7169119
vt 0.3651611 0.720517
vt 0.3353866 0.7056972
vt 0.3205868 0.7008996
vt 0.3502786 0.7112259
vt 0.3502786 0.7169119
vt 0.3502786 0.720517
vt 0.3205868 0.7056972
vt 0.3057764 0.7008996
vt 0.3353866 0.7112259
vt 0.3353866 0.7169119
vt 0.3353866 0.720517
vt 0.3057764 0.7056972
vt 0.2916016 0.7008996
vt 0.2904309 0.7056972
vt 0.3205868 0.7112259
vt 0.3205868 0.7169119
vt 0.3205868 0.720517
vt 0.3057764 0.7112259
vt 0.2900829 0.7112259
vt 0.3057764 0.7169119
vt 0.3057764 0.720517
vt 0.2904528 0.7169119
vt 0.2912488 0.720517
vt 0.2402063 0.7614071
vt 0.252962 0.764825
vt 0.2657178 0.7614071
vt 0.2308684 0.7520692
vt 0.2750556 0.7520692
vt 0.2274505 0.7393134
vt 0.2784736 0.7393134
vt 0.2308684 0.7265576
vt 0.2750556 0.7265576
vt 0.2657178 0.7172197
vt 0.2402063 0.7172197
vt 0.252962 0.7138017
vt 0.4484361 0.7524304
vt 0.4540147 0.7649134
vt 0.4577109 0.7623183
vt 0.4455982 0.7557377
vt 0.4375591 0.7448926
vt 0.4440424 0.7717864
vt 0.4353368 0.7485706
vt 0.4261331 0.7393151
vt 0.4373665 0.7651715
vt 0.4337842 0.7754829
vt 0.424477 0.7433616
vt 0.4144627 0.7350791
vt 0.4284744 0.7595298
vt 0.4303321 0.7703616
vt 0.4196306 0.785131
vt 0.4130592 0.7394658
vt 0.4023769 0.7319716
vt 0.4193555 0.7554052
vt 0.4242951 0.7645819
vt 0.4184681 0.7821511
vt 0.4062567 0.7914168
vt 0.415979 0.7771728
vt 0.4045399 0.7895413
vt 0.4015229 0.7368416
vt 0.3895436 0.730391
vt 0.4090716 0.7518095
vt 0.4177952 0.76065
vt 0.413624 0.7739561
vt 0.3893322 0.735681
vt 0.3760843 0.7311838
vt 0.3994612 0.7493147
vt 0.4086725 0.7576213
vt 0.4084393 0.7697369
vt 0.402225 0.7885222
vt 0.3771217 0.7366142
vt 0.3626932 0.7351318
vt 0.3890176 0.7479008
vt 0.4004679 0.7568097
vt 0.4039522 0.7680569
vt 0.3649292 0.7402454
vt 0.3505591 0.7425315
vt 0.3795098 0.7482512
vt 0.3911006 0.7579226
vt 0.3969451 0.7681003
vt 0.3996429 0.7886285
vt 0.354068 0.7466969
vt 0.3408472 0.7529554
vt 0.3697007 0.7508653
vt 0.3839028 0.7602531
vt 0.3925845 0.769794
vt 0.3450354 0.755996
vt 0.3342254 0.765481
vt 0.361636 0.7555464
vt 0.3765108 0.764205
vt 0.3876369 0.7738667
vt 0.3973027 0.7898448
vt 0.3387789 0.7671919
vt 0.3307316 0.7791809
vt 0.3352955 0.7798868
vt 0.354638 0.7628667
vt 0.3712391 0.7682418
vt 0.3502141 0.7713889
vt 0.3478832 0.7818054
vt 0.3852329 0.7770171
vt 0.365953 0.7738948
vt 0.362502 0.7792219
vt 0.359518 0.7867172
vt 0.3824515 0.7819574
vt 0.3955368 0.7919244
vt 0.3809725 0.7850592
vt 0.3787862 0.7901267
vt 0.394609 0.7945611
vt 0.2200586 0.7949591
vt 0.2200586 0.8017009
vt 0.2345734 0.7873769
vt 0.2267719 0.7873769
vt 0.2200586 0.7730528
vt 0.2133453 0.7873769
vt 0.2055439 0.7873769
vt 0.2200586 0.7797947
vt 0.2200586 0.7873769
vt 0.2634771 0.8017728
vt 0.2634771 0.795031
vt 0.2567638 0.7874489
vt 0.2489623 0.7874489
vt 0.2779919 0.7874489
vt 0.2634771 0.7798667
vt 0.2634771 0.7731248
vt 0.2701904 0.7874489
vt 0.2634771 0.7874489
vn -0.2260751 -0.9741098 -9.838636E-05
vn 0.0004704663 -0.8183063 0.5747823
vn -4.129712E-05 -0.9984785 0.05514381
vn -0.4268605 -0.7731316 0.469103
vn -0.3918228 -0.9074999 -0.1513895
vn -0.0008442843 -0.4017441 0.9157516
vn -0.7393826 -0.6481875 0.1821162
vn -0.4528048 -0.8163937 -0.3584259
vn -0.5007309 -0.3475443 0.7927682
vn 0.0006098695 0.02830203 0.9995993
vn -0.8536494 -0.4769776 -0.2092247
vn -0.3924264 -0.7251751 -0.5657938
vn -0.8663343 -0.2002716 0.4575544
vn -0.4510475 0.078634 0.8890291
vn 4.743781E-05 0.5110909 0.8595268
vn -0.2906089 0.54264 0.7880915
vn -0.7813329 0.2129266 0.5866694
vn -0.5030693 0.6285065 0.5932122
vn -0.7392429 -0.3052876 -0.6002661
vn -0.2266789 -0.6583615 -0.7177582
vn -0.9999999 0.0005795442 6.408827E-06
vn -0.9020556 0.3951573 0.1736274
vn -0.5804817 0.7455671 0.3273692
vn -0.4267216 -0.179008 -0.8864902
vn -4.152225E-05 -0.6339584 -0.773367
vn -0.866138 0.2012821 -0.4574828
vn -0.781107 0.5765868 -0.2396237
vn -0.5023912 0.8624244 0.06186412
vn 0.0004689874 -0.131951 -0.9912561
vn 0.2265021 -0.658533 -0.7176566
vn -0.5005348 0.3481818 -0.7926124
vn -0.4508228 0.7087288 -0.5426438
vn -0.2899314 0.9478513 -0.1323541
vn 0.4280605 -0.1768156 -0.8862846
vn 0.3920627 -0.7254247 -0.565726
vn -0.0008445231 0.4019504 -0.915661
vn 0.0006093389 0.7562131 -0.6543252
vn 4.721702E-05 0.9790738 -0.2035056
vn 0.7413825 -0.3016934 -0.599444
vn 0.4523475 -0.8166064 -0.3585188
vn 0.4992682 0.3480893 -0.7934514
vn 0.4524629 0.7062256 -0.544539
vn 0.2901307 0.9477568 -0.132594
vn 0.8561882 -0.4731472 -0.2075415
vn 0.3914592 -0.9076186 -0.1516183
vn 0.8657157 0.2009069 -0.4584459
vn 0.7835879 0.5720351 -0.2424169
vn 0.5028006 0.8622068 0.06157012
vn 0.7415209 -0.6451466 0.1842077
vn 0.2258988 -0.9741508 -0.0002930832
vn 1 -0.0001928685 -0.0003324598
vn 0.904954 0.3895618 0.1711719
vn 0.5809962 0.7452312 0.3272217
vn 0.4282004 -0.7714927 0.4705777
vn -4.129712E-05 -0.9984785 0.05514381
vn 0.0004704663 -0.8183063 0.5747823
vn 0.8659124 -0.2012344 0.4579306
vn 0.7838093 0.2077875 0.5852071
vn 0.5034789 0.6281421 0.5932509
vn 0.4994645 -0.3482245 0.7932684
vn -0.0008442843 -0.4017441 0.9157516
vn 0.4526854 0.07554342 0.8884645
vn 0.2908088 0.5423982 0.7881843
vn 0.0006098695 0.02830203 0.9995993
vn 4.743781E-05 0.5110909 0.8595268
vn 0 -0.91571 -0.4018398
vn 0 -0.91571 -0.4018398
vn 0 -0.91571 -0.4018398
vn 0 -0.9157102 -0.4018393
vn 0 -0.9157102 -0.4018393
vn 0 -0.9157097 -0.4018406
vn 0 -0.9157097 -0.4018406
vn 0 -0.9157102 -0.4018394
vn 0 -0.9157102 -0.4018394
vn 0 -0.9157096 -0.4018407
vn 0 -0.9157096 -0.4018407
vn 0 -0.9157096 -0.4018407
vn -0.4507581 0.09205166 0.8878872
vn 0.002527548 0.03516017 0.9993784
vn 0.006502511 0.04227338 0.9990849
vn -0.4563968 0.08572976 0.8856367
vn -0.7777952 0.2225461 0.5877992
vn 0.0138769 0.01517216 0.9997886
vn -0.7782263 0.2182887 0.5888243
vn -0.899228 0.4038264 0.1682658
vn -0.4609335 0.04968108 0.886043
vn -0.03618867 0.0393654 0.9985694
vn -0.8993709 0.4019218 0.17202
vn -0.7785653 0.5796435 -0.2405195
vn -0.788255 0.1841377 0.5871519
vn -0.5222914 -0.04145755 0.8517588
vn -0.005336862 0.1785338 0.9839193
vn -0.783893 0.5761628 -0.231405
vn -0.4441152 0.7105908 -0.5457311
vn -0.9091429 0.3850466 0.1587395
vn -0.8295034 -0.01046268 0.5584037
vn -0.5169185 -0.03987328 0.8551055
vn -0.3094943 0.1761967 0.9344346
vn -0.7848586 -0.101265 0.6113447
vn -0.9379767 -0.1368135 0.3185619
vn -0.4497511 0.7089331 -0.5432659
vn 5.985525E-05 0.7561984 -0.6543424
vn -0.7876681 0.5661572 -0.2429917
vn -0.9854971 0.1520711 0.07529921
vn -0.9954079 -0.07246051 0.06255025
vn -0.006021617 0.7564891 -0.6539785
vn 0.4545113 0.7065035 -0.5424687
vn -0.4417562 0.7043474 -0.5556495
vn -0.879391 0.3706413 -0.2988253
vn -0.9561328 0.0662936 -0.2853335
vn -0.8261039 0.03756361 -0.5622644
vn 0.4547662 0.7086725 -0.5394171
vn 0.7792937 0.5767805 -0.2450012
vn 0.0007228667 0.7571443 -0.6532472
vn -0.5179682 0.6016828 -0.6080186
vn -0.6395081 0.319281 -0.699349
vn 0.7777055 0.5815878 -0.2385997
vn 0.9020582 0.3959463 0.1718067
vn 0.4648435 0.7192984 -0.5162656
vn -0.08386688 0.7221115 -0.6866741
vn -0.3279659 0.4942312 -0.8050926
vn -0.1333734 0.4988651 -0.8563557
vn 0.8982912 0.4006529 0.1804166
vn 0.784373 0.2200284 0.5799538
vn 0.7681764 0.6038041 -0.2128984
vn 0.4132493 0.7447586 -0.5239843
vn 0.2219352 0.7054156 -0.6731519
vn 0.7810879 0.2223762 0.5834814
vn 0.4520807 0.08838814 0.887587
vn 0.8811164 0.4253997 0.206565
vn 0.7098842 0.6748059 -0.2017463
vn 0.506547 0.7593823 -0.4083486
vn 0.4920737 0.8168012 -0.3011631
vn 0.44598 0.08398335 0.8910941
vn 0.006502511 0.04227338 0.9990849
vn 0.002527548 0.03516017 0.9993784
vn 0.7724578 0.249204 0.5841287
vn 0.8117985 0.5222174 0.2612894
vn 0.4446776 0.08781642 0.8913755
vn 0.0138769 0.01517216 0.9997886
vn 0.6911072 0.7026201 0.1693984
vn 0.6962284 0.3598205 0.6211243
vn 0.3487465 0.1636922 0.9228113
vn -0.03618867 0.0393654 0.9985694
vn 0.6234151 0.5932627 0.5093063
vn 0.4267959 0.6677693 0.6098602
vn 0.2911785 0.3387955 0.894669
vn -0.005336862 0.1785338 0.9839193
vn -0.3094943 0.1761967 0.9344346
vn 0.3360539 0.049696 -0.9405308
vn -5.218286E-07 0.4657903 -0.8848951
vn -0.7609318 -0.5741479 -0.3022198
vn -0.3175971 -0.8390802 -0.4416745
vn 5.218286E-07 -0.4657903 0.8848951
vn 0.9865012 0.144905 0.07627525
vn 0.7609318 0.574148 0.3022199
vn 0.3360538 -0.7471959 0.5733812
vn 0.6488328 -0.6733439 -0.3544347
vn -5.218286E-07 0.4657903 -0.8848951
vn -0.3360536 0.7471958 -0.5733814
vn -0.9865012 -0.1449051 -0.07627556
vn -0.7609318 -0.5741479 -0.3022198
vn 0.7609318 0.574148 0.3022199
vn -0.336054 -0.04969601 0.9405308
vn 5.218286E-07 -0.4657903 0.8848951
vn 0.317597 0.8390802 0.4416745
vn -0.6488327 0.6733439 0.3544347
g SM_Hat_Christmas_0
f 3/3/3 2/2/2 1/1/1
f 2/2/2 4/4/4 1/1/1
f 1/1/1 4/4/4 5/5/5
f 2/2/2 6/6/6 4/4/4
f 4/4/4 7/7/7 5/5/5
f 5/5/5 7/7/7 8/8/8
f 6/6/6 9/9/9 4/4/4
f 4/4/4 9/9/9 7/7/7
f 6/6/6 10/10/10 9/9/9
f 7/7/7 11/11/11 8/8/8
f 8/8/8 11/11/11 12/12/12
f 9/9/9 13/13/13 7/7/7
f 7/7/7 13/13/13 11/11/11
f 10/10/10 14/14/14 9/9/9
f 9/9/9 14/14/14 13/13/13
f 10/10/10 15/15/15 14/14/14
f 15/15/15 16/16/16 14/14/14
f 14/14/14 16/16/16 17/17/17
f 14/14/14 17/17/17 13/13/13
f 16/16/16 18/18/18 17/17/17
f 11/11/11 19/19/19 12/12/12
f 12/12/12 19/19/19 20/20/20
f 13/13/13 21/21/21 11/11/11
f 13/13/13 17/17/17 21/21/21
f 11/11/11 21/21/21 19/19/19
f 17/17/17 18/18/18 22/22/22
f 17/17/17 22/22/22 21/21/21
f 18/18/18 23/23/23 22/22/22
f 19/19/19 24/24/24 20/20/20
f 20/20/20 24/24/24 25/25/25
f 21/21/21 26/26/26 19/19/19
f 21/21/21 22/22/22 26/26/26
f 19/19/19 26/26/26 24/24/24
f 22/22/22 23/23/23 27/27/27
f 22/22/22 27/27/27 26/26/26
f 23/23/23 28/28/28 27/27/27
f 24/24/24 29/29/29 25/25/25
f 25/25/25 29/29/29 30/30/30
f 26/26/26 31/31/31 24/24/24
f 26/26/26 27/27/27 31/31/31
f 24/24/24 31/31/31 29/29/29
f 27/27/27 28/28/28 32/32/32
f 27/27/27 32/32/32 31/31/31
f 28/28/28 33/33/33 32/32/32
f 29/29/29 34/34/34 30/30/30
f 30/30/30 34/34/34 35/35/35
f 31/31/31 36/36/36 29/29/29
f 31/31/31 32/32/32 36/36/36
f 29/29/29 36/36/36 34/34/34
f 32/32/32 33/33/33 37/37/37
f 32/32/32 37/37/37 36/36/36
f 33/33/33 38/38/38 37/37/37
f 34/34/34 39/39/39 35/35/35
f 35/35/35 39/39/39 40/40/40
f 36/36/36 41/41/41 34/34/34
f 36/36/36 37/37/37 41/41/41
f 34/34/34 41/41/41 39/39/39
f 37/37/37 38/38/38 42/42/42
f 37/37/37 42/42/42 41/41/41
f 38/38/38 43/43/43 42/42/42
f 39/39/39 44/44/44 40/40/40
f 40/40/40 44/44/44 45/45/45
f 41/41/41 46/46/46 39/39/39
f 41/41/41 42/42/42 46/46/46
f 39/39/39 46/46/46 44/44/44
f 42/42/42 43/43/43 47/47/47
f 42/42/42 47/47/47 46/46/46
f 43/43/43 48/48/48 47/47/47
f 44/44/44 49/49/49 45/45/45
f 45/45/45 49/49/49 50/50/50
f 46/46/46 51/51/51 44/44/44
f 46/46/46 47/47/47 51/51/51
f 44/44/44 51/51/51 49/49/49
f 47/47/47 48/48/48 52/52/52
f 47/47/47 52/52/52 51/51/51
f 48/48/48 53/53/53 52/52/52
f 49/49/49 54/54/54 50/50/50
f 50/50/50 54/54/54 55/55/55
f 54/54/54 56/56/56 55/55/55
f 51/51/51 57/57/57 49/49/49
f 51/51/51 52/52/52 57/57/57
f 49/49/49 57/57/57 54/54/54
f 52/52/52 53/53/53 58/58/58
f 52/52/52 58/58/58 57/57/57
f 53/53/53 59/59/59 58/58/58
f 54/54/54 60/60/60 56/56/56
f 57/57/57 60/60/60 54/54/54
f 57/57/57 58/58/58 60/60/60
f 60/60/60 61/61/61 56/56/56
f 58/58/58 59/59/59 62/62/62
f 58/58/58 62/62/62 60/60/60
f 60/60/60 62/62/62 61/61/61
f 59/59/59 63/63/63 62/62/62
f 62/62/62 64/64/64 61/61/61
f 62/62/62 63/63/63 64/64/64
f 63/63/63 65/65/65 64/64/64
f 68/68/68 67/67/67 66/66/66
f 68/68/68 66/66/66 69/69/69
f 70/70/70 68/68/68 69/69/69
f 70/70/70 69/69/69 71/71/71
f 72/72/72 70/70/70 71/71/71
f 72/72/72 71/71/71 73/73/73
f 74/74/74 72/72/72 73/73/73
f 75/75/75 74/74/74 73/73/73
f 76/76/76 75/75/75 73/73/73
f 76/76/76 77/77/77 75/75/75
f 80/80/80 79/79/79 78/78/78
f 79/79/79 81/81/81 78/78/78
f 78/78/78 81/81/81 82/82/82
f 79/79/79 83/83/83 81/81/81
f 81/81/81 84/84/84 82/82/82
f 82/82/82 84/84/84 85/85/85
f 83/83/83 86/86/86 81/81/81
f 81/81/81 86/86/86 84/84/84
f 83/83/83 87/87/87 86/86/86
f 84/84/84 88/88/88 85/85/85
f 85/85/85 88/88/88 89/89/89
f 86/86/86 90/90/90 84/84/84
f 84/84/84 90/90/90 88/88/88
f 87/87/87 91/91/91 86/86/86
f 86/86/86 91/91/91 90/90/90
f 87/87/87 92/92/92 91/91/91
f 88/88/88 93/93/93 89/89/89
f 89/89/89 93/93/93 94/94/94
f 90/90/90 95/95/95 88/88/88
f 88/88/88 95/95/95 93/93/93
f 91/91/91 96/96/96 90/90/90
f 90/90/90 96/96/96 95/95/95
f 92/92/92 97/97/97 91/91/91
f 91/91/91 97/97/97 96/96/96
f 92/92/92 98/98/98 97/97/97
f 97/97/97 98/98/98 99/99/99
f 97/97/97 99/99/99 96/96/96
f 98/98/98 100/100/100 99/99/99
f 93/93/93 101/101/101 94/94/94
f 94/94/94 101/101/101 102/102/102
f 95/95/95 103/103/103 93/93/93
f 93/93/93 103/103/103 101/101/101
f 96/96/96 104/104/104 95/95/95
f 96/96/96 99/99/99 104/104/104
f 95/95/95 104/104/104 103/103/103
f 99/99/99 100/100/100 105/105/105
f 99/99/99 105/105/105 104/104/104
f 101/101/101 106/106/106 102/102/102
f 102/102/102 106/106/106 107/107/107
f 103/103/103 108/108/108 101/101/101
f 101/101/101 108/108/108 106/106/106
f 104/104/104 109/109/109 103/103/103
f 104/104/104 105/105/105 109/109/109
f 103/103/103 109/109/109 108/108/108
f 105/105/105 100/100/100 110/110/110
f 105/105/105 110/110/110 109/109/109
f 100/100/100 111/111/111 110/110/110
f 106/106/106 112/112/112 107/107/107
f 107/107/107 112/112/112 113/113/113
f 108/108/108 114/114/114 106/106/106
f 106/106/106 114/114/114 112/112/112
f 109/109/109 115/115/115 108/108/108
f 109/109/109 110/110/110 115/115/115
f 108/108/108 115/115/115 114/114/114
f 110/110/110 111/111/111 116/116/116
f 110/110/110 116/116/116 115/115/115
f 112/112/112 117/117/117 113/113/113
f 113/113/113 117/117/117 118/118/118
f 114/114/114 119/119/119 112/112/112
f 112/112/112 119/119/119 117/117/117
f 115/115/115 120/120/120 114/114/114
f 115/115/115 116/116/116 120/120/120
f 114/114/114 120/120/120 119/119/119
f 116/116/116 111/111/111 121/121/121
f 116/116/116 121/121/121 120/120/120
f 111/111/111 122/122/122 121/121/121
f 117/117/117 123/123/123 118/118/118
f 118/118/118 123/123/123 124/124/124
f 119/119/119 125/125/125 117/117/117
f 117/117/117 125/125/125 123/123/123
f 120/120/120 126/126/126 119/119/119
f 120/120/120 121/121/121 126/126/126
f 119/119/119 126/126/126 125/125/125
f 121/121/121 122/122/122 127/127/127
f 121/121/121 127/127/127 126/126/126
f 123/123/123 128/128/128 124/124/124
f 124/124/124 128/128/128 129/129/129
f 125/125/125 130/130/130 123/123/123
f 123/123/123 130/130/130 128/128/128
f 126/126/126 131/131/131 125/125/125
f 126/126/126 127/127/127 131/131/131
f 125/125/125 131/131/131 130/130/130
f 127/127/127 122/122/122 132/132/132
f 127/127/127 132/132/132 131/131/131
f 122/122/122 133/133/133 132/132/132
f 128/128/128 134/134/134 129/129/129
f 129/129/129 134/134/134 135/135/135
f 134/134/134 136/136/136 135/135/135
f 130/130/130 137/137/137 128/128/128
f 128/128/128 137/137/137 134/134/134
f 131/131/131 138/138/138 130/130/130
f 131/131/131 132/132/132 138/138/138
f 130/130/130 138/138/138 137/137/137
f 134/134/134 139/139/139 136/136/136
f 137/137/137 139/139/139 134/134/134
f 139/139/139 140/140/140 136/136/136
f 132/132/132 133/133/133 141/141/141
f 132/132/132 141/141/141 138/138/138
f 138/138/138 142/142/142 137/137/137
f 137/137/137 142/142/142 139/139/139
f 138/138/138 141/141/141 142/142/142
f 139/139/139 143/143/143 140/140/140
f 142/142/142 143/143/143 139/139/139
f 143/143/143 144/144/144 140/140/140
f 141/141/141 133/133/133 145/145/145
f 141/141/141 145/145/145 142/142/142
f 142/142/142 145/145/145 143/143/143
f 133/133/133 146/146/146 145/145/145
f 143/143/143 147/147/147 144/144/144
f 145/145/145 147/147/147 143/143/143
f 145/145/145 146/146/146 147/147/147
f 147/147/147 148/148/148 144/144/144
f 147/147/147 146/146/146 148/148/148
f 146/146/146 149/149/149 148/148/148
f 152/152/152 151/151/151 150/150/150
f 153/153/153 152/152/152 150/150/150
f 154/154/154 152/152/152 153/153/153
f 150/150/150 151/151/151 155/155/155
f 151/151/151 156/156/156 155/155/155
f 156/156/156 154/154/154 157/157/157
f 157/157/157 154/154/154 153/153/153
f 155/155/155 156/156/156 157/157/157
f 150/150/150 158/158/158 153/153/153
f 153/153/153 158/158/158 157/157/157
f 157/157/157 158/158/158 155/155/155
f 155/155/155 158/158/158 150/150/150
f 161/161/161 160/160/160 159/159/159
f 162/162/162 161/161/161 159/159/159
f 159/159/159 160/160/160 163/163/163
f 164/164/164 161/161/161 162/162/162
f 165/165/165 164/164/164 162/162/162
f 163/163/163 166/166/166 165/165/165
f 160/160/160 166/166/166 163/163/163
f 166/166/166 164/164/164 165/165/165
f 161/161/161 167/167/167 160/160/160
f 164/164/164 167/167/167 161/161/161
f 166/166/166 167/167/167 164/164/164
f 160/160/160 167/167/167 166/166/166
