g SM_WaterTank_01
v -0.03318634 1.162636 -0.0496669
v 0.01165344 1.162636 -0.05858627
v 0.0496669 1.162636 -0.0331868
v -0.05858612 1.162636 -0.01165359
v 0.05858612 1.162636 0.01165329
v -0.0496669 1.162636 0.03318649
v 0.03318634 1.162636 0.04966659
v -0.01165344 1.162636 0.05858597
v 0.1287752 0.8389307 0.3108906
v 0.2095233 0.8903262 0.2095232
v 0.2379454 0.8389307 0.2379451
v 0.1133936 0.8903262 0.2737553
v 0 0.8389307 0.3365056
v 0.08659744 0.9417218 0.1296019
v 0 0.8903262 0.2963106
v -0.1287753 0.8389307 0.3108906
v -0.03040894 0.9417218 0.1528758
v 0.0377185 0.9931175 0.05644943
v -0.1133936 0.8903262 0.2737553
v -0.2379456 0.8389307 0.2379451
v -0.2095235 0.8903262 0.2095232
v -0.3108906 0.8389307 0.1287749
v -0.01324493 0.9931175 0.06658646
v 0.03113327 1.052183 0.04659408
v -0.2737556 0.8903262 0.1133934
v -0.3365057 0.8389307 -1.525879E-07
v -0.129602 0.9417218 0.08659744
v -0.2963109 0.8903262 -1.525879E-07
v -0.3108906 0.8389307 -0.1287755
v -0.01093262 1.052183 0.05496139
v 0.03318649 1.109803 0.04966659
v -0.05644958 0.9931175 0.03771835
v -0.2737556 0.8903262 -0.1133937
v -0.2379454 0.8389307 -0.2379457
v -0.1528761 0.9417218 -0.03040909
v -0.2095233 0.8903262 -0.2095238
v -0.128775 0.8389307 -0.3108909
v -0.01165344 1.109803 0.05858597
v 0.03318634 1.162636 0.04966659
v -0.01165344 1.162636 0.05858597
v -0.04659424 1.052183 0.03113327
v -0.04966705 1.109803 0.03318649
v -0.0496669 1.162636 0.03318649
v -0.06658691 0.9931175 -0.01324509
v -0.1133929 0.8903262 -0.2737556
v 1.525879E-07 0.8389307 -0.3365059
v -0.08659729 0.9417218 -0.1296028
v 0 0.8903262 -0.2963112
v 0.1287753 0.8389307 -0.3108909
v -0.05858612 1.109803 -0.01165359
v -0.05858612 1.162636 -0.01165359
v -0.05496155 1.052183 -0.01093277
v -0.0377182 0.9931175 -0.05644974
v 0.1133936 0.8903262 -0.2737556
v 0.2379456 0.8389307 -0.2379454
v 0.03040894 0.9417218 -0.1528764
v 0.2095235 0.8903262 -0.2095235
v 0.3108908 0.8389307 -0.1287752
v -0.03318634 1.109803 -0.0496669
v -0.03318634 1.162636 -0.0496669
v -0.03113327 1.052183 -0.04659439
v 0.01324493 0.9931175 -0.06658676
v 0.2737556 0.8903262 -0.1133931
v 0.3365057 0.8389307 -1.525879E-07
v 0.129602 0.9417218 -0.08659744
v 0.2963109 0.8903262 -1.525879E-07
v 0.3108906 0.8389307 0.1287752
v 0.01165344 1.109803 -0.05858627
v 0.01165344 1.162636 -0.05858627
v 0.01093262 1.052183 -0.0549617
v 0.05644958 0.9931175 -0.03771866
v 0.2737556 0.8903262 0.1133934
v 0.2379454 0.8389307 0.2379451
v 0.2095233 0.8903262 0.2095232
v 0.1528761 0.9417218 0.03040878
v 0.08659744 0.9417218 0.1296019
v 0.06658691 0.9931175 0.01324478
v 0.0377185 0.9931175 0.05644943
v 0.04659424 1.052183 -0.03113358
v 0.05496155 1.052183 0.01093246
v 0.03113327 1.052183 0.04659408
v 0.04966705 1.109803 -0.0331868
v 0.0496669 1.162636 -0.0331868
v 0.05858612 1.109803 0.01165329
v 0.03318649 1.109803 0.04966659
v 0.05858612 1.162636 0.01165329
v 0.03318634 1.162636 0.04966659
v 0.2379454 0.05280097 0.2379451
v 0.2611533 -5.960464E-10 0.1081731
v 0.1998781 -5.960464E-10 0.1998778
v 0.3108906 0.05280097 0.1287752
v 0.2826703 -5.960464E-10 -1.525879E-07
v 0.3108906 0.8389307 0.1287752
v 0.2379454 0.8389307 0.2379451
v 0.3365057 0.8389307 -1.525879E-07
v 0.3365057 0.05280097 -1.525879E-07
v 0.2611534 -5.960464E-10 -0.1081734
v 0.3108908 0.8389307 -0.1287752
v 0.3108908 0.05280097 -0.1287752
v 0.1998781 -5.960464E-10 -0.1998781
v 0.2379456 0.8389307 -0.2379454
v 0.2379456 0.05280097 -0.2379454
v 0.1081734 -5.960464E-10 -0.2611534
v 0.1287753 0.8389307 -0.3108909
v 0.1287753 0.05280097 -0.3108909
v 1.525879E-07 -5.960464E-10 -0.2826704
v 1.525879E-07 0.8389307 -0.3365059
v 1.525879E-07 0.05280097 -0.3365059
v -0.1081731 -5.960464E-10 -0.2611534
v -0.128775 0.8389307 -0.3108909
v -0.128775 0.05280097 -0.3108909
v -0.1998781 -5.960464E-10 -0.1998784
v -0.2379454 0.8389307 -0.2379457
v -0.2379454 0.05280097 -0.2379457
v -0.2611533 -5.960464E-10 -0.1081737
v -0.3108906 0.8389307 -0.1287755
v -0.3108906 0.05280097 -0.1287755
v -0.2826703 -5.960464E-10 -1.525879E-07
v -0.3365057 0.8389307 -1.525879E-07
v -0.3365057 0.05280097 -1.525879E-07
v -0.2611533 -5.960464E-10 0.1081731
v -0.3108906 0.8389307 0.1287749
v -0.3108906 0.05280097 0.1287749
v -0.1998781 -5.960464E-10 0.1998778
v -0.2379456 0.8389307 0.2379451
v -0.2379456 0.05280097 0.2379451
v -0.1081734 -5.960464E-10 0.2611531
v -0.1287753 0.8389307 0.3108906
v -0.1287753 0.05280097 0.3108906
v 0 -5.960464E-10 0.2826701
v 0 0.8389307 0.3365056
v 0 0.05280097 0.3365056
v 0.1081732 -5.960464E-10 0.2611531
v 0.1287752 0.8389307 0.3108906
v 0.1287752 0.05280097 0.3108906
v 0.1998781 -5.960464E-10 0.1998778
v 0.2379454 0.8389307 0.2379451
v 0.2379454 0.05280097 0.2379451
v -0.1998781 -5.960464E-10 -0.1998784
v -0.2611533 -5.960464E-10 -0.1081737
v -0.2826703 -5.960464E-10 -1.525879E-07
v -0.2611533 -5.960464E-10 0.1081731
v -0.1081731 -5.960464E-10 -0.2611534
v -0.1998781 -5.960464E-10 0.1998778
v 1.525879E-07 -5.960464E-10 -0.2826704
v -0.1081734 -5.960464E-10 0.2611531
v 0.1081734 -5.960464E-10 -0.2611534
v 0 -5.960464E-10 0.2826701
v 0.1998781 -5.960464E-10 -0.1998781
v 0.1081732 -5.960464E-10 0.2611531
v 0.2611534 -5.960464E-10 -0.1081734
v 0.1998781 -5.960464E-10 0.1998778
v 0.2611533 -5.960464E-10 0.1081731
v 0.2826703 -5.960464E-10 -1.525879E-07
vt 0.9275149 0.1757963
vt 0.9316397 0.1775048
vt 0.9357646 0.1757963
vt 0.9258063 0.1716714
vt 0.9374731 0.1716714
vt 0.9275149 0.1675467
vt 0.9357646 0.1675467
vt 0.9316397 0.165838
vt 0.9535697 0.2889852
vt 0.9417194 0.2969007
vt 0.9471404 0.3007375
vt 0.9475942 0.2868213
vt 0.95613 0.2763561
vt 0.9325294 0.2836072
vt 0.9499686 0.2760512
vt 0.9548614 0.2639753
vt 0.9352853 0.271871
vt 0.9244478 0.2777115
vt 0.9490232 0.2654845
vt 0.9501902 0.2527341
vt 0.9451076 0.2557093
vt 0.9430643 0.2435669
vt 0.92455 0.2731299
vt 0.9218388 0.2781786
vt 0.9390157 0.2476658
vt 0.934028 0.2364949
vt 0.9305816 0.2603067
vt 0.931068 0.2413208
vt 0.9240189 0.2318331
vt 0.9199877 0.2761079
vt 0.9207385 0.281851
vt 0.9212599 0.2678529
vt 0.9222649 0.2371444
vt 0.9131775 0.2294182
vt 0.920476 0.2522689
vt 0.9125338 0.2349433
vt 0.9022992 0.2293006
vt 0.9176447 0.2801854
vt 0.9190666 0.2860846
vt 0.915646 0.2841031
vt 0.9168742 0.2734942
vt 0.9144943 0.2783002
vt 0.9126511 0.2819807
vt 0.9152207 0.2638668
vt 0.9028899 0.2348589
vt 0.8913622 0.2315647
vt 0.9076847 0.2493822
vt 0.8930908 0.2369308
vt 0.8811762 0.2361151
vt 0.9111539 0.2768351
vt 0.9100556 0.2804078
vt 0.912609 0.2714149
vt 0.9076871 0.2623681
vt 0.8841646 0.2410313
vt 0.8719609 0.2432329
vt 0.8948594 0.2521235
vt 0.8761049 0.2474007
vt 0.8647233 0.2525794
vt 0.9076725 0.2762586
vt 0.9076584 0.2798413
vt 0.9076871 0.2705986
vt 0.9001594 0.2637471
vt 0.8699594 0.2555749
vt 0.8601355 0.2640721
vt 0.8847342 0.2601224
vt 0.866144 0.2655253
vt 0.8591631 0.276724
vt 0.9041938 0.2767183
vt 0.9052413 0.2803611
vt 0.9027682 0.2712869
vt 0.8941436 0.2676341
vt 0.8654792 0.2763251
vt 0.8621313 0.2894768
vt 0.8683618 0.2873603
vt 0.8802001 0.2716998
vt 0.8833564 0.2831766
vt 0.890929 0.2728128
vt 0.8911194 0.2772693
vt 0.898527 0.2732252
vt 0.8954456 0.2756716
vt 0.893622 0.2775373
vt 0.9008673 0.2780239
vt 0.9026435 0.281773
vt 0.897755 0.2796997
vt 0.8946946 0.281088
vt 0.8997235 0.2836632
vt 0.8963996 0.285385
vt 0.990136 0.3138199
vt 0.9970276 0.325492
vt 0.9970276 0.3138199
vt 0.990136 0.325492
vt 0.9970276 0.3372195
vt 0.9211482 0.325492
vt 0.9211482 0.3138199
vt 0.9211482 0.3372195
vt 0.990136 0.3372195
vt 0.9970276 0.348756
vt 0.9211482 0.348756
vt 0.990136 0.348756
vt 0.9970276 0.3603121
vt 0.9211482 0.3603121
vt 0.990136 0.3603121
vt 0.9970276 0.3718687
vt 0.9211482 0.3718687
vt 0.990136 0.3718687
vt 0.9970276 0.3834223
vt 0.9211482 0.3834223
vt 0.990136 0.3834223
vt 0.9970276 0.3949746
vt 0.9211482 0.3949746
vt 0.990136 0.3949746
vt 0.9970276 0.406526
vt 0.9211482 0.406526
vt 0.990136 0.406526
vt 0.9970276 0.4180763
vt 0.9211482 0.4180763
vt 0.990136 0.4180763
vt 0.9970276 0.4296255
vt 0.9211482 0.4296255
vt 0.990136 0.4296255
vt 0.9970276 0.441172
vt 0.9211482 0.441172
vt 0.990136 0.441172
vt 0.9970276 0.4527136
vt 0.9211482 0.4527136
vt 0.990136 0.4527136
vt 0.9970276 0.4642497
vt 0.9211482 0.4642497
vt 0.990136 0.4642497
vt 0.9970276 0.4757646
vt 0.9211482 0.4757646
vt 0.990136 0.4757646
vt 0.9970276 0.4874863
vt 0.9211482 0.4874863
vt 0.990136 0.4874863
vt 0.9970276 0.4991107
vt 0.9211482 0.4991107
vt 0.990136 0.4991107
vt 0.9834207 0.1963648
vt 0.9734699 0.192243
vt 0.9626991 0.192243
vt 0.9527482 0.1963648
vt 0.9910368 0.2039808
vt 0.9451321 0.2039808
vt 0.9951586 0.2139317
vt 0.9410104 0.2139317
vt 0.9951586 0.2247025
vt 0.9410106 0.2247025
vt 0.9910368 0.2346533
vt 0.9451324 0.2346534
vt 0.9834207 0.2422694
vt 0.9527482 0.2422694
vt 0.9626991 0.2463912
vt 0.9734699 0.2463912
vn 0 1 0
vn 0 1 0
vn 0 1 4.838172E-06
vn 0 1 4.838172E-06
vn 0 1 4.838172E-06
vn 0 1 -4.838172E-06
vn 0 1 3.421142E-06
vn 0 1 0
vn 0.3823472 0.04196792 0.9230652
vn 0.3941296 0.8422819 0.3677267
vn 0.7064838 0.04196779 0.7064838
vn 0.1889083 0.8422821 0.504851
vn 0 0.04196806 0.999119
vn 0.2003061 0.9327428 0.2997801
vn 0.01866987 0.8422824 0.5387132
vn -0.382347 0.04196794 0.9230653
vn -0.070338 0.9327428 0.3536147
vn 0.3541341 0.7705115 0.5300011
vn -0.2234056 0.8422819 0.4905621
vn -0.7064847 0.04196775 0.7064829
vn -0.3677267 0.8422817 0.3941301
vn -0.9230655 0.04196776 0.3823462
vn -0.1243549 0.7705104 0.6251795
vn 0.553951 0.07626237 0.8290491
vn -0.5048514 0.8422818 0.1889084
vn -0.999119 0.04196781 0
vn -0.2997797 0.932743 0.2003068
vn -0.5387136 0.8422821 0.01867013
vn -0.9230655 0.04196779 -0.3823464
vn -0.19452 0.0762607 0.9779295
vn 0.5552745 -0.03268455 0.8310246
vn -0.5299999 0.7705116 0.3541354
vn -0.4905621 0.8422818 -0.223406
vn -0.7064835 0.04196787 -0.7064841
vn -0.3536145 0.9327428 -0.07033828
vn -0.3941294 0.8422819 -0.367727
vn -0.382346 0.0419679 -0.9230656
vn -0.1949814 -0.03268503 0.9802622
vn 0.5555709 7.94619E-07 0.8314691
vn -0.1950852 5.8094E-07 0.9807863
vn -0.8290481 0.07626095 0.5539526
vn -0.8310251 -0.03268552 0.5552737
vn -0.8314688 1.196603E-06 0.5555715
vn -0.6251776 0.770512 -0.1243556
vn -0.1889079 0.8422817 -0.5048518
vn 0 0.04196791 -0.999119
vn -0.2003064 0.9327428 -0.29978
vn -0.01866987 0.8422815 -0.5387145
vn 0.3823472 0.04196788 -0.9230652
vn -0.9802612 -0.03268495 -0.1949863
vn -0.9807851 7.692435E-07 -0.1950909
vn -0.9779288 0.07626194 -0.1945234
vn -0.3541336 0.7705128 -0.5299994
vn 0.2234063 0.8422819 -0.4905616
vn 0.7064844 0.04196791 -0.7064831
vn 0.07033882 0.9327428 -0.3536147
vn 0.3677268 0.8422821 -0.3941292
vn 0.9230655 0.04196791 -0.3823464
vn -0.5552741 -0.03268456 -0.8310249
vn -0.5555712 0 -0.8314689
vn -0.5539516 0.07626186 -0.8290486
vn 0.1243561 0.7705117 -0.6251777
vn 0.504851 0.8422822 -0.1889081
vn 0.999119 0.04196784 5.715522E-07
vn 0.2997801 0.9327428 -0.2003068
vn 0.5387138 0.8422819 -0.01867015
vn 0.9230653 0.04196779 0.3823469
vn 0.1949816 -0.03268504 -0.9802622
vn 0.1950853 4.273585E-07 -0.9807863
vn 0.1945204 0.07626061 -0.9779295
vn 0.5300002 0.7705114 -0.3541355
vn 0.4905621 0.8422817 0.2234062
vn 0.7064838 0.04196779 0.7064838
vn 0.3941296 0.8422819 0.3677267
vn 0.3536145 0.932743 0.07033822
vn 0.2003061 0.9327428 0.2997801
vn 0.6251786 0.7705112 0.1243552
vn 0.3541341 0.7705115 0.5300011
vn 0.8290482 0.07626094 -0.5539526
vn 0.9779291 0.07626221 0.1945221
vn 0.553951 0.07626237 0.8290491
vn 0.8310251 -0.03268551 -0.5552736
vn 0.8314687 1.196603E-06 -0.5555716
vn 0.9802614 -0.03268492 0.1949854
vn 0.5552745 -0.03268455 0.8310246
vn 0.9807854 1.41028E-06 0.1950897
vn 0.5555709 7.94619E-07 0.8314691
vn 0.7060651 -0.0542598 0.7060651
vn 0.3866736 -0.9082018 0.1601655
vn 0.1517702 -0.9766942 0.1517702
vn 0.9225183 -0.05425974 0.3821204
vn 0.4185325 -0.9082018 2.984162E-07
vn 0.9230653 0.04196779 0.3823469
vn 0.7064838 0.04196779 0.7064838
vn 0.999119 0.04196784 5.715522E-07
vn 0.9985268 -0.05425973 6.077468E-07
vn 0.1982976 -0.9766941 -0.08213761
vn 0.9230655 0.04196791 -0.3823464
vn 0.9225185 -0.05425974 -0.3821197
vn 0.1009756 -0.9897515 -0.1009755
vn 0.7064844 0.04196791 -0.7064831
vn 0.7060657 -0.05425977 -0.7060645
vn 0.04533488 -0.9929582 -0.1094478
vn 0.3823472 0.04196788 -0.9230652
vn 0.3821206 -0.05425978 -0.9225181
vn 0 -0.9929582 -0.1184654
vn 0 0.04196791 -0.999119
vn 0 -0.05425982 -0.9985268
vn -0.05464749 -0.9897515 -0.1319309
vn -0.382346 0.0419679 -0.9230656
vn -0.3821194 -0.05425979 -0.9225187
vn -0.1517702 -0.9766942 -0.1517705
vn -0.7064835 0.04196787 -0.7064841
vn -0.7060648 -0.05425971 -0.7060654
vn -0.3866734 -0.9082019 -0.1601655
vn -0.9230655 0.04196779 -0.3823464
vn -0.9225185 -0.05425972 -0.3821198
vn -0.4185322 -0.9082021 0
vn -0.999119 0.04196781 0
vn -0.9985268 -0.05425975 0
vn -0.1982972 -0.9766942 0.08213749
vn -0.9230655 0.04196776 0.3823462
vn -0.9225185 -0.05425975 0.3821197
vn -0.1009756 -0.9897515 0.1009754
vn -0.7064847 0.04196775 0.7064829
vn -0.706066 -0.05425976 0.7060643
vn -0.04533487 -0.9929582 0.1094478
vn -0.382347 0.04196794 0.9230653
vn -0.3821205 -0.05425978 0.9225183
vn 0 -0.9929582 0.1184655
vn 0 0.04196806 0.999119
vn 0 -0.05425983 0.9985268
vn 0.05464775 -0.9897513 0.131931
vn 0.3823472 0.04196792 0.9230652
vn 0.3821206 -0.05425978 0.9225181
vn 0.1517702 -0.9766942 0.1517702
vn 0.7064838 0.04196779 0.7064838
vn 0.7060651 -0.0542598 0.7060651
vn -0.1517702 -0.9766942 -0.1517705
vn -0.3866734 -0.9082019 -0.1601655
vn -0.4185322 -0.9082021 0
vn -0.1982972 -0.9766942 0.08213749
vn -0.05464749 -0.9897515 -0.1319309
vn -0.1009756 -0.9897515 0.1009754
vn 0 -0.9929582 -0.1184654
vn -0.04533487 -0.9929582 0.1094478
vn 0.04533488 -0.9929582 -0.1094478
vn 0 -0.9929582 0.1184655
vn 0.1009756 -0.9897515 -0.1009755
vn 0.05464775 -0.9897513 0.131931
vn 0.1982976 -0.9766941 -0.08213761
vn 0.1517702 -0.9766942 0.1517702
vn 0.3866736 -0.9082018 0.1601655
vn 0.4185325 -0.9082018 2.984162E-07
g SM_WaterTank_01_0
f 3/3/3 2/2/2 1/1/1
f 3/3/3 1/1/1 4/4/4
f 3/3/3 4/4/4 5/5/5
f 4/4/4 6/6/6 5/5/5
f 6/6/6 7/7/7 5/5/5
f 6/6/6 8/8/8 7/7/7
f 11/11/11 10/10/10 9/9/9
f 10/10/10 12/12/12 9/9/9
f 9/9/9 12/12/12 13/13/13
f 10/10/10 14/14/14 12/12/12
f 12/12/12 15/15/15 13/13/13
f 12/12/12 14/14/14 15/15/15
f 13/13/13 15/15/15 16/16/16
f 14/14/14 17/17/17 15/15/15
f 14/14/14 18/18/18 17/17/17
f 15/15/15 19/19/19 16/16/16
f 15/15/15 17/17/17 19/19/19
f 16/16/16 19/19/19 20/20/20
f 19/19/19 21/21/21 20/20/20
f 19/19/19 17/17/17 21/21/21
f 20/20/20 21/21/21 22/22/22
f 18/18/18 23/23/23 17/17/17
f 18/18/18 24/24/24 23/23/23
f 21/21/21 25/25/25 22/22/22
f 22/22/22 25/25/25 26/26/26
f 17/17/17 27/27/27 21/21/21
f 21/21/21 27/27/27 25/25/25
f 17/17/17 23/23/23 27/27/27
f 25/25/25 28/28/28 26/26/26
f 25/25/25 27/27/27 28/28/28
f 26/26/26 28/28/28 29/29/29
f 24/24/24 30/30/30 23/23/23
f 24/24/24 31/31/31 30/30/30
f 23/23/23 32/32/32 27/27/27
f 23/23/23 30/30/30 32/32/32
f 28/28/28 33/33/33 29/29/29
f 29/29/29 33/33/33 34/34/34
f 27/27/27 35/35/35 28/28/28
f 28/28/28 35/35/35 33/33/33
f 27/27/27 32/32/32 35/35/35
f 33/33/33 36/36/36 34/34/34
f 33/33/33 35/35/35 36/36/36
f 34/34/34 36/36/36 37/37/37
f 31/31/31 38/38/38 30/30/30
f 31/31/31 39/39/39 38/38/38
f 39/39/39 40/40/40 38/38/38
f 30/30/30 41/41/41 32/32/32
f 30/30/30 38/38/38 41/41/41
f 38/38/38 40/40/40 42/42/42
f 38/38/38 42/42/42 41/41/41
f 40/40/40 43/43/43 42/42/42
f 32/32/32 44/44/44 35/35/35
f 32/32/32 41/41/41 44/44/44
f 36/36/36 45/45/45 37/37/37
f 37/37/37 45/45/45 46/46/46
f 35/35/35 47/47/47 36/36/36
f 36/36/36 47/47/47 45/45/45
f 35/35/35 44/44/44 47/47/47
f 45/45/45 48/48/48 46/46/46
f 45/45/45 47/47/47 48/48/48
f 46/46/46 48/48/48 49/49/49
f 42/42/42 43/43/43 50/50/50
f 43/43/43 51/51/51 50/50/50
f 41/41/41 42/42/42 52/52/52
f 41/41/41 52/52/52 44/44/44
f 42/42/42 50/50/50 52/52/52
f 44/44/44 53/53/53 47/47/47
f 44/44/44 52/52/52 53/53/53
f 48/48/48 54/54/54 49/49/49
f 49/49/49 54/54/54 55/55/55
f 47/47/47 56/56/56 48/48/48
f 48/48/48 56/56/56 54/54/54
f 47/47/47 53/53/53 56/56/56
f 54/54/54 57/57/57 55/55/55
f 54/54/54 56/56/56 57/57/57
f 55/55/55 57/57/57 58/58/58
f 50/50/50 51/51/51 59/59/59
f 51/51/51 60/60/60 59/59/59
f 52/52/52 50/50/50 61/61/61
f 52/52/52 61/61/61 53/53/53
f 50/50/50 59/59/59 61/61/61
f 53/53/53 62/62/62 56/56/56
f 53/53/53 61/61/61 62/62/62
f 57/57/57 63/63/63 58/58/58
f 58/58/58 63/63/63 64/64/64
f 56/56/56 65/65/65 57/57/57
f 57/57/57 65/65/65 63/63/63
f 56/56/56 62/62/62 65/65/65
f 63/63/63 66/66/66 64/64/64
f 63/63/63 65/65/65 66/66/66
f 64/64/64 66/66/66 67/67/67
f 59/59/59 60/60/60 68/68/68
f 60/60/60 69/69/69 68/68/68
f 61/61/61 59/59/59 70/70/70
f 61/61/61 70/70/70 62/62/62
f 59/59/59 68/68/68 70/70/70
f 62/62/62 71/71/71 65/65/65
f 62/62/62 70/70/70 71/71/71
f 66/66/66 72/72/72 67/67/67
f 67/67/67 72/72/72 73/73/73
f 72/72/72 74/74/74 73/73/73
f 65/65/65 75/75/75 66/66/66
f 66/66/66 75/75/75 72/72/72
f 72/72/72 75/75/75 74/74/74
f 65/65/65 71/71/71 75/75/75
f 75/75/75 76/76/76 74/74/74
f 75/75/75 77/77/77 76/76/76
f 71/71/71 77/77/77 75/75/75
f 77/77/77 78/78/78 76/76/76
f 70/70/70 79/79/79 71/71/71
f 70/70/70 68/68/68 79/79/79
f 71/71/71 79/79/79 77/77/77
f 77/77/77 80/80/80 78/78/78
f 79/79/79 80/80/80 77/77/77
f 80/80/80 81/81/81 78/78/78
f 68/68/68 82/82/82 79/79/79
f 79/79/79 82/82/82 80/80/80
f 68/68/68 69/69/69 82/82/82
f 69/69/69 83/83/83 82/82/82
f 80/80/80 84/84/84 81/81/81
f 82/82/82 84/84/84 80/80/80
f 82/82/82 83/83/83 84/84/84
f 84/84/84 85/85/85 81/81/81
f 83/83/83 86/86/86 84/84/84
f 84/84/84 86/86/86 85/85/85
f 86/86/86 87/87/87 85/85/85
f 90/90/90 89/89/89 88/88/88
f 89/89/89 91/91/91 88/88/88
f 89/89/89 92/92/92 91/91/91
f 91/91/91 93/93/93 88/88/88
f 93/93/93 94/94/94 88/88/88
f 95/95/95 93/93/93 91/91/91
f 92/92/92 96/96/96 91/91/91
f 96/96/96 95/95/95 91/91/91
f 96/96/96 92/92/92 97/97/97
f 98/98/98 95/95/95 96/96/96
f 99/99/99 96/96/96 97/97/97
f 99/99/99 98/98/98 96/96/96
f 97/97/97 100/100/100 99/99/99
f 101/101/101 98/98/98 99/99/99
f 100/100/100 102/102/102 99/99/99
f 102/102/102 101/101/101 99/99/99
f 100/100/100 103/103/103 102/102/102
f 104/104/104 101/101/101 102/102/102
f 103/103/103 105/105/105 102/102/102
f 105/105/105 104/104/104 102/102/102
f 103/103/103 106/106/106 105/105/105
f 107/107/107 104/104/104 105/105/105
f 106/106/106 108/108/108 105/105/105
f 108/108/108 107/107/107 105/105/105
f 106/106/106 109/109/109 108/108/108
f 110/110/110 107/107/107 108/108/108
f 109/109/109 111/111/111 108/108/108
f 111/111/111 110/110/110 108/108/108
f 109/109/109 112/112/112 111/111/111
f 113/113/113 110/110/110 111/111/111
f 112/112/112 114/114/114 111/111/111
f 114/114/114 113/113/113 111/111/111
f 112/112/112 115/115/115 114/114/114
f 116/116/116 113/113/113 114/114/114
f 115/115/115 117/117/117 114/114/114
f 117/117/117 116/116/116 114/114/114
f 115/115/115 118/118/118 117/117/117
f 119/119/119 116/116/116 117/117/117
f 118/118/118 120/120/120 117/117/117
f 120/120/120 119/119/119 117/117/117
f 118/118/118 121/121/121 120/120/120
f 122/122/122 119/119/119 120/120/120
f 121/121/121 123/123/123 120/120/120
f 123/123/123 122/122/122 120/120/120
f 121/121/121 124/124/124 123/123/123
f 125/125/125 122/122/122 123/123/123
f 124/124/124 126/126/126 123/123/123
f 126/126/126 125/125/125 123/123/123
f 124/124/124 127/127/127 126/126/126
f 128/128/128 125/125/125 126/126/126
f 127/127/127 129/129/129 126/126/126
f 129/129/129 128/128/128 126/126/126
f 127/127/127 130/130/130 129/129/129
f 131/131/131 128/128/128 129/129/129
f 130/130/130 132/132/132 129/129/129
f 132/132/132 131/131/131 129/129/129
f 130/130/130 133/133/133 132/132/132
f 134/134/134 131/131/131 132/132/132
f 133/133/133 135/135/135 132/132/132
f 135/135/135 134/134/134 132/132/132
f 133/133/133 136/136/136 135/135/135
f 137/137/137 134/134/134 135/135/135
f 136/136/136 138/138/138 135/135/135
f 138/138/138 137/137/137 135/135/135
f 141/141/141 140/140/140 139/139/139
f 142/142/142 141/141/141 139/139/139
f 142/142/142 139/139/139 143/143/143
f 144/144/144 142/142/142 143/143/143
f 144/144/144 143/143/143 145/145/145
f 146/146/146 144/144/144 145/145/145
f 146/146/146 145/145/145 147/147/147
f 148/148/148 146/146/146 147/147/147
f 148/148/148 147/147/147 149/149/149
f 150/150/150 148/148/148 149/149/149
f 150/150/150 149/149/149 151/151/151
f 152/152/152 150/150/150 151/151/151
f 152/152/152 151/151/151 153/153/153
f 151/151/151 154/154/154 153/153/153
